<svg width="124" height="124" viewBox="0 0 124 124" fill="none" xmlns="http://www.w3.org/2000/svg">
<g opacity="0.1" filter="url(#filter0_d)">
<rect x="28" y="24" width="80" height="80" fill="white"/>
</g>
<g filter="url(#filter1_d)">
<rect x="22" y="18" width="80" height="80" fill="#AE9DFF"/>
</g>
<g filter="url(#filter2_d)">
<rect x="16" y="12" width="80" height="80" fill="#5C3BFE"/>
<rect x="17" y="13" width="78" height="78" stroke="white" stroke-width="2"/>
</g>
<path d="M64.3594 45.3334C64.3594 49.9358 60.6283 53.6666 56.0259 53.6666C51.4236 53.6666 47.6928 49.9358 47.6928 45.3334C47.6928 40.7311 51.4236 37 56.0259 37C60.6283 37 64.3594 40.7311 64.3594 45.3334Z" fill="white"/>
<path d="M42.2759 72H69.7759C70.4659 72 71.0259 71.44 71.0259 70.75V64.9166C71.0259 60.5516 67.4743 57 63.1094 57H48.9428C44.5776 57 41.0259 60.5516 41.0259 64.9166V70.75C41.0259 71.44 41.5859 72 42.2759 72Z" fill="white"/>
<path d="M39.3594 37V39.9166C39.3594 40.8382 40.1061 41.5834 41.0259 41.5834C41.946 41.5834 42.6928 40.8382 42.6928 39.9166V37C42.6928 36.0799 43.4411 35.3334 44.3594 35.3334H46.8594C47.7795 35.3334 48.5259 34.5882 48.5259 33.6666C48.5259 32.7449 47.7795 32 46.8594 32H44.3594C41.6027 32 39.3594 34.2433 39.3594 37Z" fill="white"/>
<path d="M44.3594 55.3334H46.8594C47.7795 55.3334 48.5259 54.5882 48.5259 53.6666C48.5259 52.7449 47.7795 52 46.8594 52H44.3594C43.4411 52 42.6928 51.2532 42.6928 50.3334V47.4166C42.6928 46.4949 41.946 45.75 41.0259 45.75C40.1061 45.75 39.3594 46.4949 39.3594 47.4166V50.3334C39.3594 53.0901 41.6027 55.3334 44.3594 55.3334Z" fill="white"/>
<path d="M72.6928 37C72.6928 34.2433 70.4495 32 67.6928 32H65.1928C64.2727 32 63.5259 32.7449 63.5259 33.6666C63.5259 34.5882 64.2727 35.3334 65.1928 35.3334H67.6928C68.6111 35.3334 69.3594 36.0799 69.3594 37V39.9166C69.3594 40.8382 70.1061 41.5834 71.0259 41.5834C71.946 41.5834 72.6928 40.8382 72.6928 39.9166V37Z" fill="white"/>
<path d="M72.6928 50.3334V47.4166C72.6928 46.4949 71.946 45.75 71.0259 45.75C70.1061 45.75 69.3594 46.4949 69.3594 47.4166V50.3334C69.3594 51.2532 68.6111 52 67.6928 52H65.1928C64.2727 52 63.5259 52.7449 63.5259 53.6666C63.5259 54.5882 64.2727 55.3334 65.1928 55.3334H67.6928C70.4495 55.3334 72.6928 53.0901 72.6928 50.3334Z" fill="white"/>
<defs>
<filter id="filter0_d" x="12" y="12" width="112" height="112" filterUnits="userSpaceOnUse" color-interpolation-filters="sRGB">
<feFlood flood-opacity="0" result="BackgroundImageFix"/>
<feColorMatrix in="SourceAlpha" type="matrix" values="0 0 0 0 0 0 0 0 0 0 0 0 0 0 0 0 0 0 127 0"/>
<feOffset dy="4"/>
<feGaussianBlur stdDeviation="8"/>
<feColorMatrix type="matrix" values="0 0 0 0 0.360784 0 0 0 0 0.231373 0 0 0 0 0.996078 0 0 0 0.1 0"/>
<feBlend mode="normal" in2="BackgroundImageFix" result="effect1_dropShadow"/>
<feBlend mode="normal" in="SourceGraphic" in2="effect1_dropShadow" result="shape"/>
</filter>
<filter id="filter1_d" x="6" y="6" width="112" height="112" filterUnits="userSpaceOnUse" color-interpolation-filters="sRGB">
<feFlood flood-opacity="0" result="BackgroundImageFix"/>
<feColorMatrix in="SourceAlpha" type="matrix" values="0 0 0 0 0 0 0 0 0 0 0 0 0 0 0 0 0 0 127 0"/>
<feOffset dy="4"/>
<feGaussianBlur stdDeviation="8"/>
<feColorMatrix type="matrix" values="0 0 0 0 0.360784 0 0 0 0 0.231373 0 0 0 0 0.996078 0 0 0 0.1 0"/>
<feBlend mode="normal" in2="BackgroundImageFix" result="effect1_dropShadow"/>
<feBlend mode="normal" in="SourceGraphic" in2="effect1_dropShadow" result="shape"/>
</filter>
<filter id="filter2_d" x="0" y="0" width="112" height="112" filterUnits="userSpaceOnUse" color-interpolation-filters="sRGB">
<feFlood flood-opacity="0" result="BackgroundImageFix"/>
<feColorMatrix in="SourceAlpha" type="matrix" values="0 0 0 0 0 0 0 0 0 0 0 0 0 0 0 0 0 0 127 0"/>
<feOffset dy="4"/>
<feGaussianBlur stdDeviation="8"/>
<feColorMatrix type="matrix" values="0 0 0 0 0.360784 0 0 0 0 0.231373 0 0 0 0 0.996078 0 0 0 0.1 0"/>
<feBlend mode="normal" in2="BackgroundImageFix" result="effect1_dropShadow"/>
<feBlend mode="normal" in="SourceGraphic" in2="effect1_dropShadow" result="shape"/>
</filter>
</defs>
</svg>
