<svg width="124" height="124" viewBox="0 0 124 124" fill="none" xmlns="http://www.w3.org/2000/svg">
<g opacity="0.1" filter="url(#filter0_d)">
<rect x="28" y="24" width="80" height="80" fill="white"/>
</g>
<g filter="url(#filter1_d)">
<rect x="22" y="18" width="80" height="80" fill="#AE9DFF"/>
</g>
<g filter="url(#filter2_d)">
<rect x="16" y="12" width="80" height="80" fill="#5C3BFE"/>
<rect x="17" y="13" width="78" height="78" stroke="white" stroke-width="2"/>
</g>
<g clip-path="url(#clip0)">
<path d="M70.9145 55.4196C70.4563 49.454 67.6788 45.7157 65.2285 42.4168C62.9596 39.3627 61 36.7254 61 32.8349C61 32.5224 60.825 32.2368 60.5475 32.0936C60.2691 31.9495 59.9347 31.9731 59.6816 32.157C56.0016 34.7903 52.9312 39.2285 51.8586 43.4632C51.114 46.4114 51.0155 49.7257 51.0016 51.9147C47.6032 51.1889 46.8334 46.1054 46.8252 46.05C46.787 45.7864 46.6259 45.5569 46.3915 45.4316C46.1547 45.3079 45.8763 45.2989 45.6363 45.4178C45.458 45.504 41.262 47.6361 41.0179 56.1486C41.0008 56.4318 41 56.7159 41 56.9999C41 65.27 47.7293 71.9989 56 71.9989C56.0114 71.9997 56.0236 72.0013 56.0334 71.9989C56.0366 71.9989 56.0398 71.9989 56.0439 71.9989C64.2943 71.9752 71 65.2554 71 56.9999C71 56.584 70.9145 55.4196 70.9145 55.4196ZM56 70.3323C53.2428 70.3323 51 67.9432 51 65.0064C51 64.9063 50.9992 64.8054 51.0065 64.6817C51.0398 63.4432 51.2751 62.5977 51.533 62.0354C52.0165 63.0737 52.8807 64.0283 54.2845 64.0283C54.7452 64.0283 55.1179 63.6555 55.1179 63.195C55.1179 62.0086 55.1423 60.6398 55.4377 59.4045C55.7006 58.3092 56.3288 57.1439 57.1248 56.2097C57.4788 57.4222 58.1689 58.4036 58.8427 59.3614C59.8071 60.7317 60.804 62.1485 60.979 64.5645C60.9895 64.7077 61.0002 64.8518 61.0002 65.0064C61 67.9431 58.7572 70.3323 56 70.3323Z" fill="white"/>
</g>
<defs>
<filter id="filter0_d" x="12" y="12" width="112" height="112" filterUnits="userSpaceOnUse" color-interpolation-filters="sRGB">
<feFlood flood-opacity="0" result="BackgroundImageFix"/>
<feColorMatrix in="SourceAlpha" type="matrix" values="0 0 0 0 0 0 0 0 0 0 0 0 0 0 0 0 0 0 127 0"/>
<feOffset dy="4"/>
<feGaussianBlur stdDeviation="8"/>
<feColorMatrix type="matrix" values="0 0 0 0 0.360784 0 0 0 0 0.231373 0 0 0 0 0.996078 0 0 0 0.1 0"/>
<feBlend mode="normal" in2="BackgroundImageFix" result="effect1_dropShadow"/>
<feBlend mode="normal" in="SourceGraphic" in2="effect1_dropShadow" result="shape"/>
</filter>
<filter id="filter1_d" x="6" y="6" width="112" height="112" filterUnits="userSpaceOnUse" color-interpolation-filters="sRGB">
<feFlood flood-opacity="0" result="BackgroundImageFix"/>
<feColorMatrix in="SourceAlpha" type="matrix" values="0 0 0 0 0 0 0 0 0 0 0 0 0 0 0 0 0 0 127 0"/>
<feOffset dy="4"/>
<feGaussianBlur stdDeviation="8"/>
<feColorMatrix type="matrix" values="0 0 0 0 0.360784 0 0 0 0 0.231373 0 0 0 0 0.996078 0 0 0 0.1 0"/>
<feBlend mode="normal" in2="BackgroundImageFix" result="effect1_dropShadow"/>
<feBlend mode="normal" in="SourceGraphic" in2="effect1_dropShadow" result="shape"/>
</filter>
<filter id="filter2_d" x="0" y="0" width="112" height="112" filterUnits="userSpaceOnUse" color-interpolation-filters="sRGB">
<feFlood flood-opacity="0" result="BackgroundImageFix"/>
<feColorMatrix in="SourceAlpha" type="matrix" values="0 0 0 0 0 0 0 0 0 0 0 0 0 0 0 0 0 0 127 0"/>
<feOffset dy="4"/>
<feGaussianBlur stdDeviation="8"/>
<feColorMatrix type="matrix" values="0 0 0 0 0.360784 0 0 0 0 0.231373 0 0 0 0 0.996078 0 0 0 0.1 0"/>
<feBlend mode="normal" in2="BackgroundImageFix" result="effect1_dropShadow"/>
<feBlend mode="normal" in="SourceGraphic" in2="effect1_dropShadow" result="shape"/>
</filter>
<clipPath id="clip0">
<rect width="40" height="40" fill="white" transform="translate(36 32)"/>
</clipPath>
</defs>
</svg>
